<?xml version="1.0" encoding="iso-8859-1"?>
<!-- Uploaded to: SVG Repo, www.svgrepo.com, Generator: SVG Repo Mixer Tools -->
<svg fill="#000000" height="800px" width="800px" version="1.1" id="Layer_1" xmlns="http://www.w3.org/2000/svg" xmlns:xlink="http://www.w3.org/1999/xlink" 
	 viewBox="0 0 503.607 503.607" xml:space="preserve">
<g transform="translate(1 1)">
	<g>
		<g>
			<path d="M250.803-1C112.311-1-1,111.472-1,250.803s113.311,251.803,251.803,251.803s251.803-113.311,251.803-251.803
				S389.295-1,250.803-1z M250.803,485.82c-129.259,0-235.016-105.757-235.016-235.016S121.544,15.787,250.803,15.787
				S485.82,121.544,485.82,250.803S380.062,485.82,250.803,485.82z"/>
			<path d="M250.803,32.574c-120.026,0-218.229,98.203-218.229,218.229c0,59.607,23.896,113.488,62.503,152.804
				c0.355,0.575,0.777,1.126,1.287,1.636c0.588,0.588,1.179,1.067,1.803,1.449c39.43,38.589,93.367,62.341,152.636,62.341
				c59.409,0,113.462-23.863,152.916-62.613c0.547-0.332,1.067-0.721,1.523-1.177c0.509-0.509,0.932-1.061,1.287-1.636
				c38.608-39.316,62.503-93.196,62.503-152.804C469.033,130.777,370.829,32.574,250.803,32.574z M398.82,387.069l-59.261-59.261
				c18.323-21.178,28.753-48.743,28.753-77.005c0-28.062-10.282-55.436-28.364-76.554l59.277-59.277
				c32.884,35.886,53.021,83.619,53.021,135.831C452.246,303.228,431.942,351.134,398.82,387.069z M310.397,298.646
				c-3.357-3.357-8.393-3.357-11.751,0c-3.357,3.357-3.357,8.393,0,11.751l17.386,17.386
				c-18.368,15.622-41.121,23.742-65.229,23.742c-24.108,0-46.86-8.12-65.229-23.742l17.386-17.386
				c3.357-3.357,3.357-8.393,0-11.751c-3.357-3.357-8.393-3.357-11.751,0l-17.386,17.386
				c-15.622-18.368-23.742-41.121-23.742-65.229c0-23.909,7.988-46.484,23.359-64.773L191.21,203.8
				c1.679,1.679,3.357,2.518,5.875,2.518c2.518,0,4.197-0.839,5.875-2.518c3.357-3.357,3.357-8.393,0-11.751l-17.842-17.842
				c18.447-15.876,41.378-24.125,65.684-24.125s47.238,8.25,65.684,24.125l-17.842,17.842c-3.357,3.357-3.357,8.393,0,11.751
				c1.679,1.679,3.357,2.518,5.875,2.518c1.679,0,4.197-0.839,5.875-2.518l17.769-17.769c15.37,18.288,23.359,40.863,23.359,64.773
				c0,24.108-8.12,46.86-23.742,65.229L310.397,298.646z M387.504,103.192l-59.25,59.25c-21.237-18.565-48.989-29.146-77.451-29.146
				s-56.214,10.581-77.451,29.146l-59.25-59.25c35.983-33.36,84.063-53.831,136.7-53.831S351.521,69.831,387.504,103.192z
				 M102.382,114.972l59.267,59.267c-18.076,20.991-28.354,47.749-28.354,76.564c0,29.021,10.426,55.955,28.744,77.013
				l-59.252,59.252c-33.122-35.935-53.426-83.841-53.426-136.266C49.361,198.591,69.498,150.858,102.382,114.972z M114.538,398.82
				l59.261-59.261c21.178,18.323,48.743,28.753,77.005,28.753s55.826-10.43,77.005-28.753l59.261,59.261
				c-35.935,33.122-83.841,53.426-136.266,53.426S150.473,431.942,114.538,398.82z"/>
			<path d="M284.377,242.41h-25.18v-25.18c0-5.036-3.357-8.393-8.393-8.393s-8.393,3.357-8.393,8.393v25.18h-25.18
				c-5.036,0-8.393,3.357-8.393,8.393s3.357,8.393,8.393,8.393h25.18v25.18c0,5.036,3.357,8.393,8.393,8.393
				s8.393-3.357,8.393-8.393v-25.18h25.18c5.036,0,8.393-3.357,8.393-8.393S289.413,242.41,284.377,242.41z"/>
		</g>
	</g>
</g>
</svg>